# Blender v2.62 (sub 0) OBJ File: ''
# www.blender.org
o Icosphere
v 0.007048 -0.027496 -0.130850
v 0.266580 0.207833 0.169634
v -0.099411 0.207833 0.288554
v -0.420659 0.208830 0.100813
v -0.094108 0.174822 -0.442179
v 0.266580 0.207833 -0.215189
v 0.048373 0.395876 0.062307
v -0.360996 0.529639 0.265708
v -0.263091 0.535191 -0.215189
v 0.102900 0.535191 -0.334109
v 0.616109 0.536865 0.292880
v 0.001702 0.737398 -0.022903
v -0.057714 0.060175 0.160219
v 0.157411 0.060175 0.090319
v 0.097954 0.179094 0.273318
v 0.161073 0.037381 -0.210499
v 0.313079 0.179094 -0.022778
v -0.187009 0.037382 -0.097400
v -0.315758 0.179783 0.245555
v -0.042575 -0.034061 -0.514284
v -0.246469 0.156301 -0.280395
v 0.101615 0.156300 -0.393496
v 0.450366 0.372098 -0.025302
v 0.450366 0.372098 0.200893
v 0.201709 0.331919 0.228026
v -0.020048 0.316725 0.234371
v -0.280883 0.367912 0.340643
v -0.617674 0.374360 0.443140
v -0.411972 0.372201 -0.050532
v -0.213383 0.371512 -0.318875
v 0.001744 0.371512 -0.388774
v 0.216872 0.371512 -0.318875
v 0.350674 0.555419 0.260387
v -0.124304 0.494766 0.003297
v -0.375218 0.564618 0.062560
v -0.094465 0.563930 -0.318873
v 0.354157 0.564516 -0.095201
v 0.292205 0.676927 0.080352
v 0.036473 0.620392 0.042595
v -0.160518 0.667743 0.026865
v -0.153922 0.682848 -0.135875
v 0.061203 0.682848 -0.205774
vt 0.518868 0.598695
vt 0.391529 0.617238
vt 0.418432 0.521970
vt 0.418432 0.379772
vt 0.557230 0.424871
vt 0.518868 0.306801
vt 0.627665 0.373698
vt 0.460216 0.567568
vt 0.470365 0.598696
vt 0.346221 0.617238
vt 0.397395 0.521970
vt 0.559592 0.618958
vt 0.657666 0.497841
vt 0.594508 0.617238
vt 0.591482 0.507263
vt 0.251943 0.324713
vt 0.184261 0.418101
vt 0.335011 0.545987
vt 0.251943 0.599140
vt 0.636579 0.583989
vt 0.740961 0.595939
vt 0.787483 0.461168
vt 0.315204 0.461168
vt 0.046232 0.507264
vt 0.164300 0.583989
vt 0.390624 0.617881
vt 0.518511 0.507264
vt 0.428200 0.342680
vt 0.460216 0.095289
vt 0.335011 0.073708
vt 0.237271 0.583989
vt 0.122229 0.617238
vt 0.119203 0.507263
vt 0.709550 0.583989
vt 0.394950 0.595939
vt 0.521230 0.583989
vt 0.428200 0.461168
vt 0.428200 0.814959
vt 0.273964 0.353529
vt 0.155386 0.373698
vt 0.185387 0.497841
vt 0.471993 0.723221
vt 0.326053 0.723221
vt 0.380901 0.294180
vt 0.273964 0.499470
vt 0.471993 0.250942
vt 0.470365 0.126417
vt 0.594508 0.144959
vt 0.442734 0.687494
vt 0.585810 0.697298
vt 0.486879 0.442945
vt 0.442734 0.331929
vt 0.585810 0.336023
vt 0.627665 0.617238
vt 0.529427 0.669512
vt 0.656540 0.890380
vt 0.724222 0.796992
vt 0.274444 0.720520
vt 0.057148 0.724680
vt 0.222755 0.352586
vt 0.057148 0.252401
vt 0.274444 0.248241
vt 0.251943 0.126861
vt 0.391529 0.144959
vt 0.661405 0.250564
vt 0.740961 0.123660
vt 0.636579 0.111710
vt 0.488272 0.723287
vt 0.661405 0.722843
vt 0.594508 0.356169
vt 0.488272 0.251008
vt 0.390624 0.145602
vt 0.709550 0.111710
vt 0.456794 0.722843
vt 0.595593 0.722843
vt 0.522059 0.356169
vt 0.595593 0.250564
vt 0.456794 0.250564
vt 0.521230 0.111710
vt 0.394950 0.123660
vt 0.681922 0.369220
vt 0.486879 0.266283
vt 0.585810 0.225019
vt 0.746243 0.723221
vt 0.681922 0.841499
vt 0.380901 0.357249
vt 0.209643 0.369220
vt 0.273964 0.250942
vt 0.113532 0.225019
vt 0.155386 0.144959
vt 0.453541 0.330087
vt 0.284235 0.352586
vt 0.235887 0.248241
vt 0.274444 0.263363
vt 0.375468 0.481017
vt 0.415305 0.375155
vt 0.169757 0.252401
vt 0.222755 0.311711
vt 0.213579 0.442781
vt 0.057148 0.197233
vt 0.642035 0.252401
vt 0.960551 0.251008
vt 0.862903 0.145602
vt 0.394720 0.374711
vt 0.317995 0.250564
vt 0.285924 0.356169
vt 0.517092 0.375089
vt 0.266703 0.357249
vt 0.684169 0.375089
vt 0.479201 0.411140
vt 0.681922 0.315144
vt 0.644198 0.431302
vt 0.479201 0.455663
vt 0.456767 0.486632
vt 0.644198 0.447616
vt 0.853180 0.294180
vt 0.438335 0.441691
vt 0.375468 0.330087
vt 0.352103 0.441691
vt 0.356359 0.570811
vt 0.285924 0.621984
vt 0.685858 0.442781
vt 0.824382 0.465811
vt 0.828637 0.570811
vt 0.456767 0.497922
vt 0.352103 0.465811
vt 0.495156 0.451437
vt 0.394720 0.688880
vt 0.495156 0.615909
vt 0.684169 0.544568
vt 0.522059 0.698710
vn -0.038547 -0.661687 0.748789
vn 0.187594 -0.794658 0.577345
vn 0.471318 -0.661687 0.583121
vn 0.099839 -0.946372 0.307266
vn 0.700228 -0.661688 0.268049
vn 0.635584 -0.769203 0.066024
vn 0.814542 -0.511706 -0.273274
vn 0.419241 -0.904881 0.073671
vn -0.480854 -0.858930 0.176125
vn -0.337947 -0.907384 0.249892
vn -0.061820 -0.664629 0.744612
vn -0.274822 -0.935817 0.220726
vn -0.730024 0.055042 -0.681201
vn -0.764503 -0.625018 -0.157758
vn -0.692063 -0.686990 -0.221568
vn -0.307865 -0.949775 0.056105
vn 0.714841 -0.457037 -0.529262
vn 0.820029 -0.320088 -0.474443
vn 0.257064 0.371396 -0.892179
vn 0.373661 -0.926996 -0.032485
vn 0.618466 -0.741479 0.260208
vn 0.814876 -0.579636 0.000000
vn 0.705013 -0.709194 0.000000
vn 0.782303 -0.560033 -0.272701
vn 0.124679 0.367676 0.921558
vn 0.008369 0.278912 0.960280
vn -0.051225 0.914872 0.400480
vn 0.534435 -0.114661 0.837396
vn -0.459838 -0.873852 0.157899
vn 0.248182 -0.473230 0.845257
vn 0.259535 0.508870 0.820788
vn -0.122129 -0.429588 0.894728
vn -0.727326 -0.010877 -0.686206
vn -0.803680 0.017202 -0.594813
vn -0.796651 0.131753 -0.589906
vn -0.884836 -0.290434 -0.364298
vn 0.747428 -0.178397 -0.639942
vn 0.304930 0.162094 -0.938479
vn 0.306568 0.125651 -0.943519
vn 0.251332 0.137651 -0.958063
vn -0.631370 0.318431 0.707088
vn 0.142804 -0.234412 0.961591
vn -0.138383 -0.373000 0.917454
vn 0.157536 -0.351843 0.922707
vn 0.650868 0.559954 0.512662
vn 0.349825 0.811760 0.467620
vn 0.298620 0.816394 0.494294
vn 0.399063 0.158522 0.903117
vn -0.841262 0.384225 -0.380327
vn -0.855540 0.373901 -0.358120
vn -0.413459 0.892037 0.182543
vn -0.883090 -0.292738 -0.366684
vn -0.024726 0.330395 -0.943519
vn -0.303531 0.187597 -0.934171
vn -0.534590 0.330395 -0.777851
vn -0.286037 0.378421 -0.880330
vn 0.816709 0.213623 -0.536052
vn 0.772036 0.162837 -0.614366
vn 0.618492 0.365942 -0.695380
vn 0.773382 -0.154590 -0.614802
vn -0.563202 0.042600 0.825220
vn -0.256219 0.760587 0.596539
vn -0.223424 0.424719 0.877323
vn -0.010953 0.827180 0.561831
vn 0.745280 0.065625 0.663515
vn -0.116266 -0.157943 0.980580
vn 0.050955 0.499314 0.864921
vn -0.287177 0.068661 0.955414
vn -0.660932 0.670111 -0.337817
vn -0.422963 0.903686 0.066736
vn -0.375207 0.924250 0.070580
vn -0.400845 0.897755 0.182644
vn 0.038547 0.661687 -0.748789
vn -0.187594 0.794658 -0.577345
vn -0.102275 0.943644 -0.314764
vn -0.471318 0.661687 -0.583121
vn 0.541221 0.781804 -0.309616
vn 0.462483 0.811762 -0.356585
vn 0.265864 0.944060 -0.195108
vn 0.483780 0.647948 -0.588319
s off
f 15/1/1 3/2/1 13/3/1
f 13/4/2 14/5/2 15/6/2
f 2/7/3 15/6/3 14/5/3
f 13/4/4 1/8/4 14/5/4
f 17/9/5 2/10/5 14/11/5
f 14/5/6 16/12/6 17/13/6
f 6/14/7 17/9/7 16/15/7
f 14/5/8 1/8/8 16/12/8
f 19/16/9 4/17/9 18/18/9
f 18/18/10 13/4/10 19/16/10
f 3/2/11 19/19/11 13/3/11
f 18/18/12 1/8/12 13/4/12
f 21/20/13 5/21/13 20/22/13
f 20/23/14 18/24/14 21/25/14
f 4/26/15 21/20/15 18/27/15
f 20/28/16 1/29/16 18/30/16
f 22/31/17 6/32/17 16/33/17
f 16/15/18 20/22/18 22/34/18
f 5/35/19 22/36/19 20/37/19
f 16/12/20 1/8/20 20/38/20
f 24/39/21 2/40/21 17/41/21
f 17/9/22 23/42/22 24/43/22
f 11/44/23 24/39/23 23/45/23
f 23/46/24 17/47/24 6/48/24
f 26/49/25 3/2/25 15/1/25
f 15/1/26 25/50/26 26/49/26
f 7/51/27 26/52/27 25/53/27
f 25/50/28 15/1/28 2/54/28
f 28/55/29 4/56/29 19/57/29
f 19/19/30 27/58/30 28/59/30
f 8/60/31 28/61/31 27/62/31
f 27/62/32 19/63/32 3/64/32
f 30/65/33 5/66/33 21/67/33
f 21/20/34 29/68/34 30/69/34
f 9/70/35 30/65/35 29/71/35
f 29/71/36 21/67/36 4/72/36
f 32/65/37 6/48/37 22/73/37
f 22/36/38 31/74/38 32/75/38
f 10/76/39 32/77/39 31/78/39
f 31/78/40 22/79/40 5/80/40
f 33/81/41 7/82/41 25/83/41
f 25/50/42 24/84/42 33/85/42
f 11/86/43 33/87/43 24/88/43
f 24/88/44 25/89/44 2/90/44
f 34/91/45 8/92/45 27/93/45
f 27/94/46 26/52/46 34/95/46
f 7/51/47 34/95/47 26/52/47
f 26/49/48 27/58/48 3/2/48
f 35/96/49 9/70/49 29/71/49
f 29/71/50 28/97/50 35/96/50
f 8/98/51 35/99/51 28/100/51
f 28/101/52 29/102/52 4/103/52
f 36/104/53 10/76/53 31/78/53
f 31/78/54 30/105/54 36/104/54
f 9/106/55 36/104/55 30/105/55
f 30/105/56 31/78/56 5/80/56
f 37/107/57 11/108/57 23/46/57
f 23/46/58 32/65/58 37/107/58
f 10/76/59 37/109/59 32/77/59
f 32/65/60 23/46/60 6/48/60
f 39/110/61 7/82/61 33/81/61
f 33/111/62 38/112/62 39/113/62
f 12/114/63 39/110/63 38/115/63
f 38/112/64 33/111/64 11/116/64
f 40/117/65 8/92/65 34/91/65
f 34/118/66 39/110/66 40/119/66
f 12/114/67 40/119/67 39/110/67
f 39/110/68 34/118/68 7/82/68
f 41/120/69 9/121/69 35/99/69
f 35/122/70 40/123/70 41/124/70
f 12/125/71 41/120/71 40/126/71
f 40/126/72 35/99/72 8/98/72
f 42/127/73 10/76/73 36/104/73
f 36/128/74 41/120/74 42/129/74
f 12/125/75 42/129/75 41/120/75
f 41/120/76 36/128/76 9/121/76
f 38/112/77 11/116/77 37/130/77
f 37/130/78 42/129/78 38/112/78
f 12/125/79 38/112/79 42/129/79
f 42/129/80 37/130/80 10/131/80
